PathFileType  4	(X/Y/Z) C:\Users\wagnerel85475\Documents\Thesis\opencap-core\Data\3375ffbc-daeb-4a43-b4f7-ac9899cd4c71\MarkerData\PreAugmentation
DataRate	CameraRate	NumFrames	NumMarkers	Units	OrigDataRate	OrigDataStartFrame	OrigNumFrames
60.0	60.0	18	20	m	60.0	293	780
Frame#	Time	Neck			RShoulder			RElbow			RWrist			LShoulder			LElbow			LWrist			midHip			RHip			RKnee			RAnkle			LHip			LKnee			LAnkle			LBigToe			LSmallToe			LHeel			RBigToe			RSmallToe			RHeel			
		X1	Y1	Z1	X2	Y2	Z2	X3	Y3	Z3	X4	Y4	Z4	X5	Y5	Z5	X6	Y6	Z6	X7	Y7	Z7	X8	Y8	Z8	X9	Y9	Z9	X10	Y10	Z10	X11	Y11	Z11	X12	Y12	Z12	X13	Y13	Z13	X14	Y14	Z14	X15	Y15	Z15	X16	Y16	Z16	X17	Y17	Z17	X18	Y18	Z18	X19	Y19	Z19	X20	Y20	Z20	

293	4.8666667	-0.7837800	1.3577600	-0.0588300	-0.7828800	1.3610100	0.1486200	-0.8340900	1.0451300	0.2090100	-0.7203600	0.7600000	0.2451000	-0.7753300	1.3568000	-0.2416300	-0.8507900	1.0461800	-0.2948700	-0.7384500	0.7500000	-0.3127500	-0.7027200	0.8020100	-0.0348300	-0.7180400	0.8045700	0.0893900	-0.7574800	0.3191300	0.0906200	-0.8389300	-0.1818400	0.1414600	-0.7442500	0.7985400	-0.1571800	-0.7646800	0.3149300	-0.1513500	-0.8643400	-0.1953200	-0.1900400	-0.6044100	-0.2431800	-0.2607500	-0.6941900	-0.2543000	-0.3010600	-0.8959100	-0.2517700	-0.1782400	-0.6032900	-0.2324300	0.2022900	-0.6941300	-0.2333700	0.2489900	-0.9282700	-0.2497600	0.1112300
294	4.8833333	-0.7837300	1.3577400	-0.0588100	-0.7828900	1.3610700	0.1486300	-0.8341000	1.0451200	0.2090000	-0.7203600	0.7598400	0.2450900	-0.7753900	1.3571300	-0.2416400	-0.8508900	1.0462000	-0.2948900	-0.7372500	0.7509900	-0.3131100	-0.7027400	0.8020200	-0.0348400	-0.7180800	0.8045700	0.0893700	-0.7575500	0.3201800	0.0905400	-0.8389200	-0.1818000	0.1414500	-0.7442800	0.7985000	-0.1571900	-0.7647000	0.3147900	-0.1513600	-0.8642600	-0.1952400	-0.1900600	-0.6046500	-0.2433200	-0.2606600	-0.6956400	-0.2526500	-0.3018500	-0.8955400	-0.2523100	-0.1783100	-0.6033100	-0.2324300	0.2022900	-0.6941500	-0.2333300	0.2489900	-0.9284000	-0.2471700	0.1114300
295	4.9000000	-0.7837800	1.3577500	-0.0588200	-0.7828900	1.3610600	0.1486300	-0.8340800	1.0451300	0.2089800	-0.7203900	0.7598400	0.2450900	-0.7753500	1.3569700	-0.2416300	-0.8509600	1.0462200	-0.2948900	-0.7329900	0.7522200	-0.3145700	-0.7028100	0.8020100	-0.0348400	-0.7180900	0.8045700	0.0893700	-0.7575700	0.3204200	0.0905400	-0.8389000	-0.1817600	0.1414400	-0.7443500	0.7984800	-0.1571800	-0.7647400	0.3148600	-0.1513600	-0.8642300	-0.1950900	-0.1900700	-0.6050500	-0.2434500	-0.2605200	-0.6962800	-0.2518100	-0.3019700	-0.8949400	-0.2513500	-0.1785400	-0.6033600	-0.2324300	0.2023000	-0.6941800	-0.2333200	0.2489900	-0.9285100	-0.2454900	0.1115800
296	4.9166667	-0.7841700	1.3577600	-0.0589300	-0.7828900	1.3610800	0.1486200	-0.8340400	1.0451500	0.2089700	-0.7203900	0.7598000	0.2450900	-0.7753200	1.3568400	-0.2416300	-0.8510200	1.0462100	-0.2948700	-0.7266700	0.7535400	-0.3165400	-0.7029200	0.8020000	-0.0348300	-0.7193200	0.8044700	0.0891000	-0.7573700	0.3185900	0.0907100	-0.8388800	-0.1817400	0.1414200	-0.7444100	0.7984700	-0.1571700	-0.7647600	0.3148100	-0.1513600	-0.8642200	-0.1950800	-0.1900600	-0.6040300	-0.2431700	-0.2608400	-0.6954600	-0.2526300	-0.3013000	-0.8946200	-0.2505700	-0.1786600	-0.6034200	-0.2324500	0.2023200	-0.6942300	-0.2333200	0.2490100	-0.9285000	-0.2448100	0.1115600
297	4.9333333	-0.7846400	1.3577200	-0.0590700	-0.7828800	1.3610000	0.1486200	-0.8340200	1.0452200	0.2089400	-0.7203800	0.7599400	0.2450900	-0.7753200	1.3569200	-0.2416200	-0.8510800	1.0462000	-0.2948500	-0.7222700	0.7553800	-0.3179000	-0.7030000	0.8020500	-0.0348200	-0.7238400	0.8040700	0.0880900	-0.7571500	0.3156500	0.0909800	-0.8388300	-0.1817300	0.1414200	-0.7444600	0.7987100	-0.1571800	-0.7648300	0.3147400	-0.1513700	-0.8642000	-0.1951500	-0.1900600	-0.5999200	-0.2415500	-0.2621900	-0.6898600	-0.2529200	-0.3000200	-0.8950900	-0.2514700	-0.1785200	-0.6034500	-0.2324700	0.2023500	-0.6942500	-0.2333300	0.2490300	-0.9284400	-0.2439400	0.1113800
298	4.9500000	-0.7835000	1.3577200	-0.0587800	-0.7828600	1.3610200	0.1486200	-0.8340300	1.0452300	0.2089200	-0.7203200	0.7600700	0.2450800	-0.7753100	1.3569500	-0.2416200	-0.8511100	1.0461600	-0.2948400	-0.7212400	0.7573900	-0.3182400	-0.7030000	0.8019800	-0.0348400	-0.7303500	0.8035200	0.0865800	-0.7570900	0.3138300	0.0911700	-0.8388000	-0.1816900	0.1414100	-0.7444300	0.7989800	-0.1572100	-0.7648900	0.3146300	-0.1513700	-0.8642000	-0.1951500	-0.1900500	-0.5935600	-0.2397900	-0.2642300	-0.6789700	-0.2514500	-0.2992400	-0.8960300	-0.2538100	-0.1782200	-0.6034600	-0.2324700	0.2023600	-0.6941900	-0.2333800	0.2490500	-0.9284600	-0.2425600	0.1111600
299	4.9666667	-0.7788200	1.3576500	-0.0575600	-0.7828200	1.3610000	0.1486400	-0.8340300	1.0452200	0.2089000	-0.7202600	0.7601800	0.2450600	-0.7752900	1.3569700	-0.2416200	-0.8511000	1.0461600	-0.2948400	-0.7216900	0.7582700	-0.3181200	-0.7029700	0.8019800	-0.0348800	-0.7348400	0.8031300	0.0855100	-0.7570500	0.3134100	0.0912000	-0.8387700	-0.1816900	0.1414100	-0.7442900	0.7987500	-0.1572500	-0.7649200	0.3145100	-0.1513600	-0.8641900	-0.1951700	-0.1900500	-0.5892700	-0.2385500	-0.2656300	-0.6710700	-0.2495500	-0.2997000	-0.8967600	-0.2557000	-0.1780200	-0.6034400	-0.2324800	0.2023700	-0.6941300	-0.2334100	0.2490600	-0.9285300	-0.2415400	0.1110200
300	4.9833333	-0.7720900	1.3575600	-0.0557800	-0.7827500	1.3609800	0.1486700	-0.8340100	1.0452200	0.2089000	-0.7203100	0.7599200	0.2450900	-0.7752700	1.3569300	-0.2416100	-0.8510900	1.0461900	-0.2948400	-0.7219600	0.7576200	-0.3180300	-0.7029800	0.8019300	-0.0349100	-0.7359200	0.8030100	0.0852500	-0.7570700	0.3139000	0.0911200	-0.8387500	-0.1817000	0.1414100	-0.7440700	0.7969700	-0.1572800	-0.7649800	0.3145500	-0.1513600	-0.8641800	-0.1952400	-0.1900600	-0.5894100	-0.2386200	-0.2656200	-0.6744000	-0.2503100	-0.3007200	-0.8968100	-0.2557300	-0.1780300	-0.6034400	-0.2324800	0.2023600	-0.6941200	-0.2333800	0.2490700	-0.9285300	-0.2412900	0.1110100
301	5.0000000	-0.7674300	1.3574800	-0.0545500	-0.7826500	1.3609800	0.1486900	-0.8339900	1.0452000	0.2089100	-0.7205600	0.7585700	0.2451800	-0.7752500	1.3568500	-0.2416000	-0.8510600	1.0462200	-0.2948600	-0.7219000	0.7565300	-0.3180500	-0.7030500	0.8018400	-0.0349200	-0.7354800	0.8030200	0.0853500	-0.7572300	0.3153900	0.0909500	-0.8387400	-0.1816900	0.1414200	-0.7439300	0.7934700	-0.1572500	-0.7649700	0.3143000	-0.1513800	-0.8641500	-0.1953100	-0.1900800	-0.5926300	-0.2396600	-0.2646400	-0.6847300	-0.2529800	-0.3016600	-0.8961900	-0.2538700	-0.1782300	-0.6034300	-0.2324900	0.2023500	-0.6941700	-0.2332600	0.2490700	-0.9285000	-0.2413700	0.1110400
302	5.0166667	-0.7663100	1.3574900	-0.0542400	-0.7825700	1.3610000	0.1487100	-0.8339800	1.0451700	0.2089200	-0.7209700	0.7566600	0.2453200	-0.7752400	1.3568600	-0.2415900	-0.8510100	1.0462000	-0.2948800	-0.7218000	0.7560400	-0.3181100	-0.7031500	0.8018100	-0.0349100	-0.7351500	0.8030200	0.0854400	-0.7574900	0.3173000	0.0907700	-0.8387300	-0.1816800	0.1414200	-0.7439600	0.7905400	-0.1572000	-0.7649900	0.3142300	-0.1514100	-0.8641300	-0.1953400	-0.1900900	-0.5958400	-0.2407000	-0.2636300	-0.6908700	-0.2546700	-0.3026600	-0.8952700	-0.2515700	-0.1785100	-0.6034300	-0.2324900	0.2023500	-0.6941700	-0.2332500	0.2490600	-0.9284700	-0.2414400	0.1110700
303	5.0333333	-0.7668000	1.3574800	-0.0543700	-0.7825500	1.3610100	0.1487100	-0.8339700	1.0451700	0.2089200	-0.7212700	0.7553500	0.2454200	-0.7752400	1.3568600	-0.2415900	-0.8509400	1.0462300	-0.2949000	-0.7217500	0.7560900	-0.3181400	-0.7032000	0.8018100	-0.0349100	-0.7351400	0.8030000	0.0854500	-0.7576400	0.3182100	0.0906900	-0.8387300	-0.1816700	0.1414200	-0.7439100	0.7902400	-0.1572100	-0.7649900	0.3142600	-0.1514200	-0.8641100	-0.1953400	-0.1900900	-0.5981700	-0.2414200	-0.2628800	-0.6913900	-0.2548000	-0.3031500	-0.8947300	-0.2500000	-0.1786800	-0.6034400	-0.2325000	0.2023500	-0.6941700	-0.2332500	0.2490600	-0.9284500	-0.2414500	0.1110700
304	5.0500000	-0.7672000	1.3574800	-0.0544900	-0.7825700	1.3610400	0.1487000	-0.8339600	1.0451900	0.2089100	-0.7213300	0.7550400	0.2454300	-0.7752400	1.3568600	-0.2415900	-0.8508900	1.0462900	-0.2949100	-0.7217500	0.7562100	-0.3181400	-0.7031900	0.8018100	-0.0349000	-0.7352100	0.8030000	0.0854400	-0.7575600	0.3172200	0.0907800	-0.8387200	-0.1816700	0.1414200	-0.7436800	0.7918900	-0.1572800	-0.7649200	0.3142000	-0.1514300	-0.8641000	-0.1954200	-0.1900900	-0.6009500	-0.2422000	-0.2619700	-0.6923300	-0.2550700	-0.3025100	-0.8946000	-0.2496700	-0.1787200	-0.6034900	-0.2325300	0.2023400	-0.6942000	-0.2332700	0.2490500	-0.9284300	-0.2414200	0.1110600
305	5.0666667	-0.7672500	1.3574800	-0.0545200	-0.7825900	1.3610300	0.1486900	-0.8339600	1.0452000	0.2089100	-0.7213000	0.7551400	0.2454200	-0.7752400	1.3569000	-0.2416000	-0.8508800	1.0462500	-0.2949100	-0.7217900	0.7562300	-0.3181500	-0.7031700	0.8017900	-0.0349000	-0.7352500	0.8029900	0.0854300	-0.7574400	0.3151900	0.0909500	-0.8387200	-0.1816600	0.1414100	-0.7434400	0.7932900	-0.1573500	-0.7648300	0.3141700	-0.1514400	-0.8641900	-0.1954100	-0.1900600	-0.6036600	-0.2429700	-0.2610700	-0.6948400	-0.2559600	-0.3015200	-0.8946600	-0.2498000	-0.1787000	-0.6035500	-0.2325500	0.2023300	-0.6942500	-0.2332500	0.2490400	-0.9284200	-0.2413900	0.1110500
306	5.0833333	-0.7672000	1.3574500	-0.0545200	-0.7826000	1.3610300	0.1486800	-0.8339700	1.0451900	0.2089100	-0.7212800	0.7552500	0.2454100	-0.7752400	1.3568500	-0.2416000	-0.8508800	1.0462500	-0.2949100	-0.7218100	0.7561000	-0.3181700	-0.7031300	0.8017900	-0.0349100	-0.7352300	0.8029900	0.0854300	-0.7573900	0.3136900	0.0910800	-0.8387100	-0.1816600	0.1414100	-0.7433100	0.7935400	-0.1573700	-0.7647700	0.3141800	-0.1514400	-0.8642200	-0.1954200	-0.1900500	-0.6047000	-0.2433900	-0.2607100	-0.6964800	-0.2567200	-0.3011500	-0.8947000	-0.2499200	-0.1787000	-0.6035900	-0.2325700	0.2023200	-0.6942900	-0.2332600	0.2490400	-0.9284100	-0.2413700	0.1110400
307	5.1000000	-0.7671700	1.3574400	-0.0545200	-0.7826200	1.3610100	0.1486700	-0.8339800	1.0451900	0.2089100	-0.7213000	0.7552400	0.2454100	-0.7752400	1.3568600	-0.2416100	-0.8508500	1.0462500	-0.2949200	-0.7216800	0.7559700	-0.3181500	-0.7030800	0.8018000	-0.0349200	-0.7351900	0.8030000	0.0854200	-0.7574000	0.3136900	0.0910800	-0.8387000	-0.1816600	0.1414000	-0.7433400	0.7937200	-0.1573600	-0.7647400	0.3141900	-0.1514400	-0.8640000	-0.1949300	-0.1901100	-0.6045800	-0.2433400	-0.2607400	-0.6965200	-0.2564000	-0.3012300	-0.8947100	-0.2499300	-0.1787000	-0.6035800	-0.2325700	0.2023100	-0.6942800	-0.2332600	0.2490300	-0.9283900	-0.2413800	0.1110300
308	5.1166667	-0.7671800	1.3574300	-0.0545200	-0.7826600	1.3610200	0.1486700	-0.8339700	1.0451800	0.2089100	-0.7213500	0.7553100	0.2454200	-0.7752400	1.3568600	-0.2416100	-0.8508800	1.0462800	-0.2949200	-0.7213000	0.7563200	-0.3180200	-0.7030500	0.8018300	-0.0349300	-0.7351600	0.8030100	0.0854000	-0.7574300	0.3151200	0.0909500	-0.8387000	-0.1816400	0.1414000	-0.7435900	0.7950100	-0.1573200	-0.7647100	0.3142500	-0.1514400	-0.8635100	-0.1938000	-0.1902400	-0.6043700	-0.2432100	-0.2608000	-0.6944800	-0.2544500	-0.3010000	-0.8947000	-0.2498500	-0.1787100	-0.6035400	-0.2325400	0.2023100	-0.6942400	-0.2332400	0.2490300	-0.9284000	-0.2413700	0.1110400
309	5.1333333	-0.7672100	1.3575100	-0.0545000	-0.7827000	1.3609900	0.1486800	-0.8339600	1.0451500	0.2089000	-0.7213800	0.7552100	0.2454100	-0.7752200	1.3568700	-0.2416100	-0.8512300	1.0463000	-0.2948200	-0.7210400	0.7577300	-0.3178400	-0.7030400	0.8018300	-0.0349400	-0.7351400	0.8030300	0.0853900	-0.7575300	0.3171000	0.0907900	-0.8387000	-0.1815800	0.1414100	-0.7440100	0.7971100	-0.1572700	-0.7646300	0.3141800	-0.1514500	-0.8632700	-0.1930000	-0.1903100	-0.6043000	-0.2432800	-0.2608100	-0.6906500	-0.2516100	-0.3002300	-0.8946600	-0.2497900	-0.1787100	-0.6034900	-0.2325100	0.2023100	-0.6941700	-0.2332200	0.2490200	-0.9284400	-0.2413100	0.1110500
310	5.1500000	-0.7672300	1.3575400	-0.0544900	-0.7827200	1.3610200	0.1487000	-0.8339600	1.0451700	0.2088900	-0.7214000	0.7551000	0.2454100	-0.7752100	1.3568900	-0.2416100	-0.8516900	1.0462900	-0.2946900	-0.7224000	0.7595900	-0.3181300	-0.7030500	0.8018700	-0.0349500	-0.7351300	0.8030500	0.0853900	-0.7576500	0.3183900	0.0907000	-0.8386900	-0.1815600	0.1414100	-0.7443400	0.7986800	-0.1572500	-0.7646200	0.3142200	-0.1514600	-0.8635400	-0.1936200	-0.1902200	-0.6044000	-0.2432800	-0.2607900	-0.6885100	-0.2496600	-0.2997700	-0.8946000	-0.2497900	-0.1787100	-0.6034700	-0.2324800	0.2023200	-0.6941300	-0.2332100	0.2490200	-0.9284400	-0.2412900	0.1110500
